<svg width="25" height="25" xmlns="http://www.w3.org/2000/svg" xmlns:xlink="http://www.w3.org/1999/xlink" xml:space="preserve" overflow="hidden"><g><path d="M8.98438 11.3281C8.98438 13.4115 10.6771 15.1042 12.7604 15.1042 14.8437 15.1042 16.5365 13.4115 16.5365 11.3281 16.5365 9.24479 14.8437 7.55208 12.7604 7.55208 10.6771 7.55208 8.98438 9.24479 8.98438 11.3281ZM14.8698 12.4479 14.8698 13.2552 10.625 13.2552 10.625 12.4479C10.625 12.2917 10.7031 12.1354 10.8333 12.0312 11.1458 11.7969 11.4844 11.6406 11.875 11.5365 12.1615 11.4583 12.4479 11.4062 12.7604 11.4062 13.0469 11.4062 13.3594 11.4583 13.6458 11.5365 14.0104 11.6406 14.375 11.7969 14.6875 12.0312 14.7917 12.1354 14.8698 12.2917 14.8698 12.4479ZM12.7604 9.01042C13.3333 9.01042 13.8281 9.47917 13.8281 10.0781L13.8281 10.0781C13.8281 10.651 13.3594 11.1458 12.7604 11.1458 12.1875 11.1458 11.6927 10.6771 11.6927 10.0781 11.6927 9.47917 12.1615 9.01042 12.7604 9.01042Z"/><path d="M23.6979 8.33333 24.4792 8.33333 24.4792 9.11458 23.6979 9.11458Z"/><path d="M19.2448 8.33333 20 8.33333 20 9.11458 19.2448 9.11458Z"/><path d="M20.7552 8.33333 21.5104 8.33333 21.5104 9.11458 20.7552 9.11458Z"/><path d="M22.2396 8.33333 22.9948 8.33333 22.9948 9.11458 22.2396 9.11458Z"/><path d="M17.7083 8.33333 18.4896 8.33333 18.4896 9.11458 17.7083 9.11458Z"/><path d="M17.7083 5.20833 18.4896 5.20833 18.4896 5.98958 17.7083 5.98958Z"/><path d="M17.7083 6.77083 18.4896 6.77083 18.4896 7.55208 17.7083 7.55208Z"/><path d="M17.7083 3.64583 18.4896 3.64583 18.4896 4.42708 17.7083 4.42708Z"/><path d="M17.7083 2.08333 18.4896 2.08333 18.4896 2.86458 17.7083 2.86458Z"/><path d="M20.7552 2.08333 21.5104 2.08333 21.5104 2.86458 20.7552 2.86458Z"/><path d="M22.2396 2.08333 22.9948 2.08333 22.9948 2.86458 22.2396 2.86458Z"/><path d="M19.2448 2.08333 20 2.08333 20 2.86458 19.2448 2.86458Z"/><path d="M23.6979 2.08333 24.4792 2.08333 24.4792 2.86458 23.6979 2.86458Z"/><path d="M23.6979 3.64583 24.4792 3.64583 24.4792 4.42708 23.6979 4.42708Z"/><path d="M23.6979 5.20833 24.4792 5.20833 24.4792 5.98958 23.6979 5.98958Z"/><path d="M23.6979 6.77083 24.4792 6.77083 24.4792 7.55208 23.6979 7.55208Z"/><path d="M18.2292 15.7552C18.2552 15.8073 18.3073 15.8333 18.3594 15.8333 18.3854 15.8333 18.4115 15.8073 18.4375 15.7552L18.8281 14.6875 20.0521 15.9115 20.599 15.3646 19.375 14.1406 20.4427 13.75C20.4948 13.724 20.5208 13.6719 20.5208 13.6198 20.5208 13.5938 20.4948 13.5677 20.4427 13.5417L17.3437 12.5C17.3437 12.5 17.3177 12.5 17.3177 12.5L17.3177 12.5C17.2656 12.5 17.2135 12.5521 17.2135 12.6042 17.2135 12.6042 17.2135 12.6302 17.2135 12.6302L18.2292 15.7552Z"/><path d="M7.55208 6.25 0.520833 6.25 0.520833 11.7188 7.55208 11.7188 7.55208 6.25ZM6.77083 10.9375 1.30208 10.9375 1.30208 7.03125 6.77083 7.03125 6.77083 10.9375Z"/><path d="M2.34375 7.68229 5.46875 7.68229 5.46875 8.46354 2.34375 8.46354Z"/><path d="M2.34375 9.24479 4.42708 9.24479 4.42708 10.026 2.34375 10.026Z"/><path d="M22.1354 3.90625 19.0104 3.90625 19.0104 5.46875 21.6146 5.46875 21.6146 7.8125 23.1771 7.8125 23.1771 4.94792C23.1771 4.375 22.7083 3.90625 22.1354 3.90625Z"/><path d="M21.6146 16.9271 3.90625 16.9271 3.90625 12.7604 2.34375 12.7604 2.34375 17.4479C2.34375 18.0208 2.8125 18.4896 3.38542 18.4896L10.6771 18.4896 10.6771 20.0521 8.07292 20.0521 8.07292 21.6146 17.4479 21.6146 17.4479 20.0521 14.8437 20.0521 14.8437 18.4896 22.1354 18.4896C22.7083 18.4896 23.1771 18.0208 23.1771 17.4479L23.1771 9.63542 21.6146 9.63542 21.6146 16.9271Z"/><path d="M17.1875 3.90625 3.38542 3.90625C2.8125 3.90625 2.34375 4.375 2.34375 4.94792L2.34375 5.46875 17.1875 5.46875 17.1875 3.90625Z"/></g></svg>