<svg width="24" height="24" xmlns="http://www.w3.org/2000/svg" xmlns:xlink="http://www.w3.org/1999/xlink" xml:space="preserve" overflow="hidden"><g><path d="M20.5 20.9 15.5 16.15 20.5 11.4 20.5 20.9ZM4.3 21.5 9.25 16.825 9.6 16.5C10.95 15.225 13.075 15.225 14.425 16.5L14.775 16.825 19.7 21.5 4.3 21.5ZM3.5 11.375 8.5 16.125 3.5 20.875 3.5 11.375ZM7 5 17 5 17 13.325 14.75 15.475C13.125 14.225 10.875 14.225 9.25 15.475L7 13.325 7 5ZM18.5 5.675 18.5 3.5 15 3.5 12 1 9 3.5 5.5 3.5 5.5 5.7 2 9.025 2 23 22 23 22 9.025 18.5 5.675Z"/><path d="M12 10.575C11.55 10.575 11.2 10.2 11.2 9.775 11.2 9.325 11.575 8.975 12 8.975 12.45 8.975 12.8 9.325 12.8 9.775 12.8 10.225 12.45 10.575 12 10.575ZM12 13C12.575 13 13.125 12.85 13.625 12.6 13.825 12.475 13.9 12.225 13.8 12.025 13.675 11.825 13.425 11.75 13.225 11.85 12.85 12.05 12.425 12.15 12 12.15 10.675 12.15 9.575 11.05 9.6 9.725 9.6 8.4 10.7 7.3 12.025 7.3 13.35 7.3 14.45 8.375 14.45 9.725L14.45 10.525C14 10.525 13.65 10.175 13.65 9.725 13.65 8.925 13.1 8.25 12.325 8.1 11.55 7.95 10.775 8.375 10.5 9.1 10.225 9.825 10.5 10.675 11.175 11.075 11.85 11.475 12.725 11.35 13.25 10.75 13.55 11.1 14 11.3 14.475 11.3 14.925 11.3 15.275 10.95 15.275 10.5L15.275 9.7C15.275 7.9 13.825 6.45 12.025 6.45 10.225 6.45 8.775 7.9 8.775 9.7 8.75 11.525 10.2 12.975 12 13Z"/></g></svg>