<svg width="24" height="24" xmlns="http://www.w3.org/2000/svg" xmlns:xlink="http://www.w3.org/1999/xlink" xml:space="preserve" overflow="hidden"><g><path d="M9.25 10.02C9.3846 9.88035 9.45988 9.69398 9.46 9.5 9.46082 9.30293 9.38245 9.11375 9.2425 8.975L6.8725 6.6025C6.7326 6.46243 6.54297 6.38333 6.345 6.3825 6.1479 6.384 5.9593 6.46303 5.82 6.6025L5.5575 6.8675 8.9775 10.28Z"/><path d="M12.6875 16.09C12.5442 16.2357 12.3099 16.2376 12.1643 16.0942 12.1628 16.0928 12.1614 16.0914 12.16 16.09L7.91 11.84C7.76377 11.6936 7.76377 11.4564 7.91 11.31L8.44 10.795 5.0325 7.39C4.8125 7.61 4.5975 7.825 4.4575 7.9575 4.11462 8.27792 3.9094 8.71885 3.885 9.1875 3.85407 9.95193 3.9906 10.7139 4.285 11.42 4.5671 12.0527 4.91305 12.655 5.3175 13.2175 6.72407 15.3278 8.50307 17.1644 10.5675 18.6375 10.9122 18.8925 11.2748 19.1222 11.6525 19.325 12.5062 19.7736 13.4414 20.0457 14.4025 20.125 15.0599 20.1728 15.7035 19.92 16.1525 19.4375L16.6225 18.9675 13.2025 15.56Z"/><path d="M17.4075 17.1275 15.0375 14.75C14.7453 14.4608 14.2747 14.4608 13.9825 14.75L13.7325 15.02 17.1425 18.445 17.4075 18.195C17.6966 17.9028 17.6966 17.4322 17.4075 17.14Z"/><path d="M15.535 12.5 14.535 12.5C14.4266 11.0658 13.4004 9.86765 12 9.54L12 8.52C13.9566 8.87018 15.4182 10.5157 15.535 12.5Z"/><path d="M17.925 12C17.925 12.1675 17.925 12.335 17.9025 12.5L16.9025 12.5C16.9197 12.3339 16.928 12.167 16.9275 12 16.9234 9.28072 14.7193 7.07775 12 7.075L12 6.075C15.2711 6.07775 17.9223 8.72885 17.925 12Z"/><path d="M20.5 12C20.5 12.1675 20.5 12.335 20.4825 12.5L19.4825 12.5C19.4825 12.335 19.5025 12.1675 19.5025 12 19.5025 7.99592 16.2566 4.75 12.2525 4.75 12.2517 4.75 12.2508 4.75 12.25 4.75 12.165 4.75 12.0825 4.75 12 4.75L12 3.75 12.25 3.75C16.8064 3.75 20.5 7.44365 20.5 12Z"/></g></svg>