<svg width="24" height="24" xmlns="http://www.w3.org/2000/svg" xmlns:xlink="http://www.w3.org/1999/xlink" xml:space="preserve" overflow="hidden"><g><path d="M15.75 7.82 11.25 3.535 11.25 3.535 2.25 12.0975 3.2225 12.9275 11.25 5.3025 11.25 5.3025 15.4275 9.2725C15.5036 8.7819 15.6114 8.29673 15.75 7.82Z"/><path d="M19.75 18.75 19.75 13.7025C21.25 13.4325 22.375 11.9775 22.375 9.905 22.375 7.605 20 2.85 19.25 2.85 18.5 2.85 16.125 7.6 16.125 9.905 16.125 11.9775 17.2625 13.4325 18.75 13.7025L18.75 18.75 17.75 18.75 17.75 14.165C16.425 13.5425 15.5 12.1 15.39 10.3L11.25 6.5 4.75 12.4675 4.75 18.75 3.25 18.75 3.25 18.3775 3.6725 18.3775C3.84725 18.3759 3.99673 18.2516 4.03 18.08L4.03 18.08C4.10162 17.7638 4.25707 17.4728 4.48 17.2375 4.51118 17.2082 4.51265 17.1591 4.48333 17.128 4.46265 17.106 4.43113 17.098 4.4025 17.1075 3.9657 17.2094 3.56635 17.432 3.25 17.75L3.25 17.05C4.365 16.865 3.75 15.4125 3.75 15.4125 3.72898 15.3752 3.6817 15.3621 3.64442 15.3831 3.63212 15.39 3.62195 15.4002 3.615 15.4125L3.3475 15.8675 3.08 15.4125C3.06522 15.3879 3.0387 15.3728 3.01 15.3725 2.9822 15.3736 2.95683 15.3886 2.9425 15.4125L2.675 15.8675 2.3975 15.4125C2.37491 15.3745 2.32581 15.3621 2.28784 15.3847 2.27639 15.3915 2.26681 15.401 2.26 15.4125 2.26 15.4125 1.6375 16.8625 2.76 17.05L2.76 17.735C2.44272 17.4235 2.04566 17.2055 1.6125 17.105 1.57187 17.0915 1.52802 17.1136 1.51455 17.1542 1.50506 17.1828 1.51304 17.2143 1.535 17.235 1.75875 17.4697 1.91432 17.761 1.985 18.0775L1.985 18.0775C2.01828 18.2491 2.16776 18.3734 2.3425 18.375L2.75 18.375 2.75 18.75 0.75 18.75 0.75 20.25 23 20.25 23 18.75ZM8.75 16 6.25 16 6.25 13.5 8.75 13.5ZM12.5 18.75 10 18.75 10 13.5 12.5 13.5ZM16.25 16 13.75 16 13.75 13.5 16.25 13.5Z"/></g></svg>